<svg
   width="500"
   height="200"
   viewBox="0 0 132.29167 52.916668"
   version="1.1"
   id="svg5"
   xmlns="http://www.w3.org/2000/svg"
   xmlns:svg="http://www.w3.org/2000/svg">
  <defs
     id="defs2" />
  <g
     id="layer1">
    <g
       id="g2190"
       transform="translate(-37.836947,-24.97715)">
      <rect
         style="fill:none;stroke:#040404;stroke-width:0.132292;stroke-dasharray:none;stroke-opacity:1"
         id="rect61"
         width="48"
         height="28.124998"
         x="41.635681"
         y="33.763691" />
      <rect
         style="fill:none;stroke:#040404;stroke-width:0.132292;stroke-dasharray:none;stroke-opacity:1"
         id="rect61-9"
         width="48"
         height="28.124998"
         x="118.32988"
         y="33.763691" />
      <g
         aria-label="BLUETOOTH
CENTRAL"
         transform="rotate(-90)"
         id="text1704"
         style="font-weight:300;font-size:7.05556px;font-family:Helvetica;-inkscape-font-specification:'Helvetica Light';writing-mode:tb-rl;direction:rtl;fill:none;stroke:#040404;stroke-width:0.132292">
        <path
           d="m -45.547244,45.499134 v 1.220612 q 0,0.395111 0.03528,0.684389 0.03528,0.296334 0.141111,0.486834 0.112889,0.1905 0.310445,0.282222 0.204611,0.09878 0.536223,0.09878 0.3175,0 0.508,-0.105833 0.197556,-0.105834 0.303389,-0.30339 0.105833,-0.197555 0.141111,-0.472722 0.04233,-0.275167 0.04233,-0.613834 v -1.277056 z m 2.427113,0 v 1.213556 q 0,0.373945 0.0635,0.627945 0.0635,0.254 0.183445,0.409222 0.127,0.155223 0.303389,0.218723 0.183444,0.07055 0.416278,0.07055 0.239889,0 0.402167,-0.07761 0.169333,-0.07761 0.268111,-0.246944 0.105833,-0.169334 0.148167,-0.444501 0.04939,-0.268111 0.04939,-0.663222 V 45.49913 Z m -2.836335,-0.479778 h 5.080003 v 1.834445 q 0,0.444501 -0.09172,0.762001 -0.09172,0.3175 -0.261056,0.515056 -0.169333,0.204611 -0.409222,0.296333 -0.232834,0.09172 -0.515056,0.09172 -0.268112,0 -0.465667,-0.07056 -0.1905,-0.07056 -0.324556,-0.183445 -0.127,-0.112889 -0.204611,-0.261055 -0.07056,-0.141112 -0.09878,-0.296334 h -0.01411 q -0.07761,0.529167 -0.416278,0.783167 -0.338667,0.261056 -0.846667,0.261056 -0.395112,0 -0.670279,-0.127 -0.275167,-0.119945 -0.4445,-0.338667 -0.169333,-0.218722 -0.246945,-0.529167 -0.07055,-0.303389 -0.07055,-0.663223 z"
           style="fill:#000000;stroke:none"
           id="path2006" />
        <path
           d="m -45.956466,49.725413 h 5.080003 v 0.479778 h -4.670781 v 2.723446 h -0.409222 z"
           style="fill:#000000;stroke:none"
           id="path2008" />
        <path
           d="m -40.876463,53.655358 v 0.479778 h -3.026835 q -0.945445,0 -1.361723,0.352778 -0.416278,0.352778 -0.416278,1.135945 0,0.409222 0.105833,0.691445 0.112889,0.289278 0.331611,0.465667 0.225778,0.176389 0.55739,0.254 0.331611,0.07761 0.783167,0.07761 h 3.026835 v 0.479778 h -3.167946 q -0.994834,0 -1.524001,-0.493889 -0.522112,-0.486834 -0.522112,-1.474612 0,-0.994834 0.536223,-1.481668 0.536222,-0.486833 1.50989,-0.486833 z"
           style="fill:#000000;stroke:none"
           id="path2010" />
        <path
           d="m -45.956466,58.742405 h 5.080003 v 3.379613 h -0.409222 v -2.899835 h -1.834446 v 2.617613 h -0.409223 v -2.617613 h -2.01789 v 2.970391 h -0.409222 z"
           style="fill:#000000;stroke:none"
           id="path2012" />
        <path
           d="m -40.876463,62.594728 v 3.697113 h -0.409222 v -1.608668 h -4.670781 v -0.479778 h 4.670781 v -1.608667 z"
           style="fill:#000000;stroke:none"
           id="path2014" />
        <path
           d="m -43.42352,66.778673 q 0.557389,0 1.044223,0.148167 0.486833,0.155222 0.846667,0.451556 0.366889,0.296333 0.578556,0.733778 0.211667,0.437445 0.211667,1.008945 0,0.592667 -0.211667,1.037167 -0.204611,0.451556 -0.5715,0.74789 -0.359834,0.303389 -0.853723,0.451555 -0.486834,0.155223 -1.044223,0.155223 -0.550334,0 -1.037167,-0.155223 -0.479779,-0.148166 -0.846668,-0.4445 -0.359833,-0.296333 -0.5715,-0.740834 -0.211667,-0.4445 -0.211667,-1.030111 0,-0.585612 0.211667,-1.030112 0.211667,-0.4445 0.5715,-0.740834 0.366889,-0.296334 0.846668,-0.4445 0.486833,-0.148167 1.037167,-0.148167 z m -2.257779,2.370668 q 0,0.493889 0.183444,0.846667 0.1905,0.359834 0.500945,0.585612 0.310445,0.232833 0.719667,0.338667 0.409223,0.112889 0.853723,0.112889 0.529167,0 0.945445,-0.134056 0.423334,-0.127 0.719667,-0.373945 0.296334,-0.246944 0.451556,-0.599722 0.155222,-0.352778 0.155222,-0.790223 0,-0.486834 -0.1905,-0.846667 -0.1905,-0.352778 -0.508,-0.585612 -0.310445,-0.225778 -0.719667,-0.338667 -0.409223,-0.105833 -0.853723,-0.105833 -0.451556,0 -0.860778,0.105833 -0.409223,0.112889 -0.719668,0.338667 -0.310444,0.232834 -0.493889,0.585612 -0.183444,0.359833 -0.183444,0.860778 z"
           style="fill:#000000;stroke:none"
           id="path2016" />
        <path
           d="m -43.42352,72.267898 q 0.557389,0 1.044223,0.148167 0.486833,0.155222 0.846667,0.451556 0.366889,0.296333 0.578556,0.733778 0.211667,0.437445 0.211667,1.008945 0,0.592667 -0.211667,1.037168 -0.204611,0.451556 -0.5715,0.747889 -0.359834,0.303389 -0.853723,0.451556 -0.486834,0.155222 -1.044223,0.155222 -0.550334,0 -1.037167,-0.155222 -0.479779,-0.148167 -0.846668,-0.4445 -0.359833,-0.296334 -0.5715,-0.740834 -0.211667,-0.444501 -0.211667,-1.030112 0,-0.585611 0.211667,-1.030112 0.211667,-0.4445 0.5715,-0.740834 0.366889,-0.296333 0.846668,-0.4445 0.486833,-0.148167 1.037167,-0.148167 z m -2.257779,2.370669 q 0,0.493889 0.183444,0.846667 0.1905,0.359833 0.500945,0.585611 0.310445,0.232834 0.719667,0.338667 0.409223,0.112889 0.853723,0.112889 0.529167,0 0.945445,-0.134056 0.423334,-0.127 0.719667,-0.373944 0.296334,-0.246945 0.451556,-0.599723 0.155222,-0.352778 0.155222,-0.790223 0,-0.486833 -0.1905,-0.846667 -0.1905,-0.352778 -0.508,-0.585611 -0.310445,-0.225778 -0.719667,-0.338667 -0.409223,-0.105834 -0.853723,-0.105834 -0.451556,0 -0.860778,0.105834 -0.409223,0.112889 -0.719668,0.338667 -0.310444,0.232833 -0.493889,0.585611 -0.183444,0.359834 -0.183444,0.860779 z"
           style="fill:#000000;stroke:none"
           id="path2018" />
        <path
           d="m -40.876463,77.496066 v 3.697114 h -0.409222 v -1.608668 h -4.670781 v -0.479778 h 4.670781 v -1.608668 z"
           style="fill:#000000;stroke:none"
           id="path2020" />
        <path
           d="m -45.956466,81.870512 h 5.080003 v 0.479778 h -2.180168 v 3.005668 h 2.180168 v 0.479778 h -5.080003 v -0.479778 h 2.490613 V 82.35029 h -2.490613 z"
           style="fill:#000000;stroke:none"
           id="path2022" />
        <path
           d="m -51.170525,58.820029 q 0.649111,-0.148167 0.924278,-0.550334 0.275167,-0.402166 0.275167,-1.051278 0,-0.458611 -0.183444,-0.790223 -0.183445,-0.331611 -0.49389,-0.550333 -0.310444,-0.211667 -0.719667,-0.317501 -0.402167,-0.09878 -0.853723,-0.09878 -0.423333,0 -0.832556,0.08467 -0.409222,0.09172 -0.733778,0.296334 -0.3175,0.204611 -0.515056,0.550333 -0.197555,0.345723 -0.197555,0.867834 0,0.324556 0.105833,0.592667 0.105833,0.268112 0.289278,0.465667 0.1905,0.204612 0.4445,0.338667 0.254,0.141111 0.557389,0.211667 v 0.500945 q -0.366889,-0.08467 -0.6985,-0.246945 -0.324556,-0.162278 -0.5715,-0.430389 -0.246945,-0.261056 -0.395112,-0.642056 -0.141111,-0.373945 -0.141111,-0.881945 0,-0.585611 0.211667,-1.001889 0.218722,-0.416279 0.585611,-0.68439 0.366889,-0.261056 0.846668,-0.381 0.486833,-0.119945 1.030111,-0.119945 0.726723,0 1.234723,0.176389 0.508001,0.183445 0.825501,0.500945 0.324556,0.3175 0.465667,0.74789 0.148167,0.430389 0.148167,0.938389 0,0.388056 -0.105834,0.719667 -0.09878,0.338667 -0.303389,0.592667 -0.204611,0.261056 -0.508,0.423334 -0.296334,0.169333 -0.691445,0.232833 z"
           style="fill:#000000;stroke:none"
           id="path2024" />
        <path
           d="m -54.775916,60.30874 h 5.080003 v 3.379613 h -0.409223 v -2.899835 h -1.834445 v 2.617613 h -0.409223 v -2.617613 h -2.01789 v 2.970391 h -0.409222 z"
           style="fill:#000000;stroke:none"
           id="path2026" />
        <path
           d="m -50.345025,65.099452 v -0.01411 h -4.430891 v -0.479778 h 5.080003 v 0.543278 l -4.437947,2.935113 v 0.01411 h 4.437947 v 0.479778 h -5.080003 v -0.557389 z"
           style="fill:#000000;stroke:none"
           id="path2028" />
        <path
           d="m -49.695913,69.255164 v 3.697114 h -0.409223 V 71.34361 h -4.67078 v -0.479778 h 4.67078 v -1.608668 z"
           style="fill:#000000;stroke:none"
           id="path2030" />
        <path
           d="m -52.059526,75.605167 q 0,0.268111 0.05644,0.493889 0.05644,0.232833 0.176389,0.402167 0.127,0.169333 0.3175,0.268111 0.1905,0.09878 0.458611,0.09878 0.282223,0 0.465667,-0.105833 0.183445,-0.09878 0.289278,-0.275167 0.105834,-0.169334 0.148167,-0.395112 0.04233,-0.218722 0.04233,-0.458611 V 74.10939 h -1.95439 z m -0.409222,-1.495779 h -2.307168 V 73.62961 h 5.080003 v 1.989668 q 0,0.839612 -0.3175,1.284112 -0.310445,0.4445 -1.016001,0.4445 -0.479778,0 -0.762,-0.197556 -0.282223,-0.1905 -0.479778,-0.627944 -0.07761,0.225778 -0.225778,0.352778 -0.148167,0.127 -0.338667,0.1905 -0.1905,0.0635 -0.402167,0.07761 -0.211667,0.02117 -0.409223,0.02822 -0.289278,0.0071 -0.479778,0.02117 -0.1905,0.02117 -0.310444,0.04233 -0.119945,0.02822 -0.190501,0.0635 -0.0635,0.03528 -0.09878,0.08467 h -0.04939 v -0.529167 q 0.127,-0.07761 0.352778,-0.112889 0.225778,-0.02822 0.472722,-0.04939 0.246945,-0.01411 0.479778,-0.02822 0.232834,-0.0071 0.381001,-0.03528 0.204611,-0.04233 0.324555,-0.141111 0.127,-0.09172 0.1905,-0.225778 0.0635,-0.134056 0.08467,-0.303389 0.02117,-0.162278 0.02117,-0.338667 z"
           style="fill:#000000;stroke:none"
           id="path2032" />
        <path
           d="m -54.775916,77.877055 5.080003,1.996724 v 0.543278 l -5.080003,1.947334 v -0.493889 l 1.594556,-0.585611 v -2.314224 l -1.594556,-0.599723 z m 2.003779,1.25589 v 1.989668 l 2.667001,-0.994834 z"
           style="fill:#000000;stroke:none"
           id="path2034" />
        <path
           d="m -54.775916,83.048779 h 5.080003 v 0.479778 h -4.670781 v 2.723446 h -0.409222 z"
           style="fill:#000000;stroke:none"
           id="path2036" />
      </g>
      <g
         aria-label="DEVICE"
         transform="rotate(-90)"
         id="text1704-7"
         style="font-weight:300;font-size:4.23333px;font-family:Helvetica;-inkscape-font-specification:'Helvetica Light';writing-mode:tb-rl;direction:rtl;fill:none;stroke:#040404;stroke-width:0.132292">
        <path
           d="m -69.078334,152.4434 v -1.31258 h 3.04684 v 1.31258 q -0.0041,0.28319 -0.06615,0.47129 -0.10542,0.32039 -0.386539,0.51883 -0.227376,0.15916 -0.49196,0.21704 -0.264583,0.0579 -0.504361,0.0579 -0.607714,0 -1.029394,-0.24392 -0.56844,-0.33072 -0.56844,-1.02112 z m 2.269627,0.47335 q 0.248047,-0.14676 0.248047,-0.58084 v -0.58704 h -1.988508 v 0.58704 q 0,0.45062 0.444417,0.62839 0.243913,0.0971 0.580843,0.0971 0.465087,0 0.715201,-0.1447 z"
           style="font-weight:bold;-inkscape-font-specification:'Helvetica Bold';fill:#000000;stroke:none"
           id="path2113" />
        <path
           d="m -67.74715,156.30879 v -1.48001 h -0.783414 v 1.68672 h -0.54777 v -2.3089 h 3.04684 v 2.23448 h -0.539502 v -1.6123 h -0.646988 v 1.48001 z"
           style="font-weight:bold;-inkscape-font-specification:'Helvetica Bold';fill:#000000;stroke:none"
           id="path2115" />
        <path
           d="m -66.031494,156.78628 v 0.68006 l -2.313035,0.66146 2.313035,0.66766 v 0.66146 l -3.04684,-1.03973 v -0.60151 z"
           style="font-weight:bold;-inkscape-font-specification:'Helvetica Bold';fill:#000000;stroke:none"
           id="path2117" />
        <path
           d="m -66.031494,159.78558 v 0.63252 h -3.04684 v -0.63252 z"
           style="font-weight:bold;-inkscape-font-specification:'Helvetica Bold';fill:#000000;stroke:none"
           id="path2119" />
        <path
           d="m -68.850958,163.16108 q -0.312125,-0.34106 -0.312125,-0.8723 0,-0.65732 0.421679,-1.03352 0.423746,-0.37621 1.161685,-0.37621 0.797884,0 1.229898,0.42788 0.376204,0.37207 0.376204,0.94671 0,0.76895 -0.504361,1.12448 -0.283187,0.19637 -0.56844,0.21084 v -0.63665 q 0.219107,-0.062 0.330728,-0.15916 0.198438,-0.17364 0.198438,-0.5147 0,-0.34727 -0.28112,-0.54777 -0.279052,-0.20051 -0.791682,-0.20051 -0.51263,0 -0.768945,0.21084 -0.254248,0.21291 -0.254248,0.53951 0,0.33486 0.219108,0.51056 0.117822,0.0971 0.353467,0.16123 v 0.63045 q -0.498161,-0.0827 -0.810286,-0.42168 z"
           style="font-weight:bold;-inkscape-font-specification:'Helvetica Bold';fill:#000000;stroke:none"
           id="path2121" />
        <path
           d="m -67.74715,166.18932 v -1.48001 h -0.783414 v 1.68671 h -0.54777 v -2.3089 h 3.04684 v 2.23449 h -0.539502 v -1.6123 h -0.646988 v 1.48001 z"
           style="font-weight:bold;-inkscape-font-specification:'Helvetica Bold';fill:#000000;stroke:none"
           id="path2123" />
      </g>
      <g
         aria-label="BLUETOOTH
PERIPHERAL"
         transform="rotate(-90)"
         id="text1704-8"
         style="font-weight:300;font-size:7.05556px;font-family:Helvetica;-inkscape-font-specification:'Helvetica Light';writing-mode:tb-rl;direction:rtl;fill:none;stroke:#040404;stroke-width:0.132292">
        <path
           d="m -45.614272,122.39793 v 1.22061 q 0,0.39511 0.03528,0.68439 0.03528,0.29633 0.141111,0.48683 0.112889,0.1905 0.310445,0.28223 0.204611,0.0988 0.536222,0.0988 0.317501,0 0.508001,-0.10584 0.197555,-0.10583 0.303389,-0.30339 0.105833,-0.19755 0.141111,-0.47272 0.04233,-0.27517 0.04233,-0.61383 v -1.27706 z m 2.427113,0 v 1.21356 q 0,0.37394 0.0635,0.62794 0.0635,0.254 0.183445,0.40922 0.127,0.15523 0.303389,0.21873 0.183444,0.0705 0.416278,0.0705 0.239889,0 0.402167,-0.0776 0.169333,-0.0776 0.268111,-0.24694 0.105833,-0.16934 0.148167,-0.4445 0.04939,-0.26812 0.04939,-0.66323 v -1.10772 z m -2.836335,-0.47978 h 5.080003 v 1.83445 q 0,0.4445 -0.09172,0.762 -0.09172,0.3175 -0.261056,0.51505 -0.169333,0.20462 -0.409222,0.29634 -0.232834,0.0917 -0.515056,0.0917 -0.268112,0 -0.465667,-0.0706 -0.1905,-0.0705 -0.324556,-0.18344 -0.127,-0.11289 -0.204611,-0.26106 -0.07056,-0.14111 -0.09878,-0.29633 h -0.01411 q -0.07761,0.52917 -0.416278,0.78317 -0.338667,0.26105 -0.846668,0.26105 -0.395111,0 -0.670278,-0.127 -0.275167,-0.11994 -0.4445,-0.33866 -0.169333,-0.21873 -0.246945,-0.52917 -0.07055,-0.30339 -0.07055,-0.66322 z"
           style="fill:#000000;stroke:none"
           id="path2039" />
        <path
           d="m -46.023494,126.62421 h 5.080003 v 0.47978 h -4.670781 v 2.72344 h -0.409222 z"
           style="fill:#000000;stroke:none"
           id="path2041" />
        <path
           d="m -40.943491,130.55415 v 0.47978 h -3.026835 q -0.945445,0 -1.361723,0.35278 -0.416278,0.35278 -0.416278,1.13594 0,0.40923 0.105833,0.69145 0.112889,0.28928 0.331611,0.46567 0.225778,0.17639 0.55739,0.254 0.331611,0.0776 0.783167,0.0776 h 3.026835 v 0.47978 h -3.167946 q -0.994834,0 -1.524001,-0.49389 -0.522112,-0.48684 -0.522112,-1.47462 0,-0.99483 0.536223,-1.48166 0.536222,-0.48684 1.50989,-0.48684 z"
           style="fill:#000000;stroke:none"
           id="path2043" />
        <path
           d="m -46.023494,135.6412 h 5.080003 v 3.37961 h -0.409222 v -2.89983 h -1.834446 v 2.61761 h -0.409223 v -2.61761 h -2.01789 v 2.97039 h -0.409222 z"
           style="fill:#000000;stroke:none"
           id="path2045" />
        <path
           d="m -40.943491,139.49352 v 3.69712 h -0.409222 v -1.60867 h -4.670781 v -0.47978 h 4.670781 v -1.60867 z"
           style="fill:#000000;stroke:none"
           id="path2047" />
        <path
           d="m -43.490548,143.67747 q 0.557389,0 1.044223,0.14817 0.486833,0.15522 0.846667,0.45155 0.366889,0.29634 0.578556,0.73378 0.211667,0.43744 0.211667,1.00895 0,0.59266 -0.211667,1.03716 -0.204611,0.45156 -0.5715,0.74789 -0.359834,0.30339 -0.853723,0.45156 -0.486834,0.15522 -1.044223,0.15522 -0.550334,0 -1.037167,-0.15522 -0.479779,-0.14817 -0.846668,-0.4445 -0.359833,-0.29634 -0.5715,-0.74084 -0.211667,-0.4445 -0.211667,-1.03011 0,-0.58561 0.211667,-1.03011 0.211667,-0.4445 0.5715,-0.74083 0.366889,-0.29634 0.846668,-0.4445 0.486833,-0.14817 1.037167,-0.14817 z m -2.257779,2.37067 q 0,0.49389 0.183444,0.84666 0.1905,0.35984 0.500945,0.58562 0.310445,0.23283 0.719667,0.33866 0.409223,0.11289 0.853723,0.11289 0.529167,0 0.945445,-0.13405 0.423333,-0.127 0.719667,-0.37395 0.296334,-0.24694 0.451556,-0.59972 0.155222,-0.35278 0.155222,-0.79022 0,-0.48684 -0.1905,-0.84667 -0.1905,-0.35278 -0.508,-0.58561 -0.310445,-0.22578 -0.719667,-0.33867 -0.409223,-0.10583 -0.853723,-0.10583 -0.451556,0 -0.860778,0.10583 -0.409223,0.11289 -0.719668,0.33867 -0.310444,0.23283 -0.493889,0.58561 -0.183444,0.35983 -0.183444,0.86078 z"
           style="fill:#000000;stroke:none"
           id="path2049" />
        <path
           d="m -43.490548,149.16669 q 0.557389,0 1.044223,0.14817 0.486833,0.15522 0.846667,0.45156 0.366889,0.29633 0.578556,0.73378 0.211667,0.43744 0.211667,1.00894 0,0.59267 -0.211667,1.03717 -0.204611,0.45155 -0.5715,0.74789 -0.359834,0.30339 -0.853723,0.45155 -0.486834,0.15523 -1.044223,0.15523 -0.550334,0 -1.037167,-0.15523 -0.479779,-0.14816 -0.846668,-0.4445 -0.359833,-0.29633 -0.5715,-0.74083 -0.211667,-0.4445 -0.211667,-1.03011 0,-0.58561 0.211667,-1.03011 0.211667,-0.4445 0.5715,-0.74084 0.366889,-0.29633 0.846668,-0.4445 0.486833,-0.14817 1.037167,-0.14817 z m -2.257779,2.37067 q 0,0.49389 0.183444,0.84667 0.1905,0.35983 0.500945,0.58561 0.310445,0.23283 0.719667,0.33867 0.409223,0.11289 0.853723,0.11289 0.529167,0 0.945445,-0.13406 0.423333,-0.127 0.719667,-0.37394 0.296334,-0.24695 0.451556,-0.59973 0.155222,-0.35277 0.155222,-0.79022 0,-0.48683 -0.1905,-0.84667 -0.1905,-0.35277 -0.508,-0.58561 -0.310445,-0.22578 -0.719667,-0.33866 -0.409223,-0.10584 -0.853723,-0.10584 -0.451556,0 -0.860778,0.10584 -0.409223,0.11288 -0.719668,0.33866 -0.310444,0.23284 -0.493889,0.58561 -0.183444,0.35984 -0.183444,0.86078 z"
           style="fill:#000000;stroke:none"
           id="path2051" />
        <path
           d="m -40.943491,154.39486 v 3.69712 h -0.409222 v -1.60867 h -4.670781 v -0.47978 h 4.670781 v -1.60867 z"
           style="fill:#000000;stroke:none"
           id="path2053" />
        <path
           d="m -46.023494,158.76931 h 5.080003 v 0.47978 h -2.180168 v 3.00566 h 2.180168 v 0.47978 h -5.080003 v -0.47978 h 2.490612 v -3.00566 h -2.490612 z"
           style="fill:#000000;stroke:none"
           id="path2055" />
        <path
           d="m -54.842944,121.50895 h 5.080003 v 1.85562 q 0,0.49389 -0.112889,0.81139 -0.112889,0.32455 -0.310445,0.508 -0.197555,0.1905 -0.458611,0.26105 -0.254,0.0776 -0.536223,0.0776 -0.423333,0 -0.6985,-0.17639 -0.275167,-0.16933 -0.437445,-0.4445 -0.155222,-0.27516 -0.218722,-0.62794 -0.0635,-0.34572 -0.0635,-0.6985 v -1.08656 h -2.243668 z m 2.65289,1.58045 q 0,0.33867 0.04233,0.60678 0.04233,0.26811 0.155222,0.45155 0.119944,0.1905 0.3175,0.28928 0.204611,0.10583 0.529167,0.10583 0.479778,0 0.726723,-0.3175 0.246944,-0.31044 0.246944,-0.99483 v -1.24178 h -2.01789 z"
           style="fill:#000000;stroke:none"
           id="path2057" />
        <path
           d="m -54.842944,125.84105 h 5.080003 v 3.37962 h -0.409223 v -2.89984 h -1.834445 v 2.61762 h -0.409223 v -2.61762 h -2.01789 v 2.97039 h -0.409222 z"
           style="fill:#000000;stroke:none"
           id="path2059" />
        <path
           d="m -52.126554,132.12049 q 0,0.26811 0.05644,0.49389 0.05644,0.23283 0.176389,0.40217 0.127,0.16933 0.3175,0.26811 0.1905,0.0988 0.458611,0.0988 0.282223,0 0.465667,-0.10584 0.183445,-0.0988 0.289278,-0.27516 0.105834,-0.16934 0.148167,-0.39512 0.04233,-0.21872 0.04233,-0.45861 v -1.524 h -1.95439 z m -0.409222,-1.49578 h -2.307168 v -0.47978 h 5.080003 v 1.98967 q 0,0.83961 -0.3175,1.28411 -0.310445,0.4445 -1.016001,0.4445 -0.479778,0 -0.762,-0.19755 -0.282223,-0.1905 -0.479779,-0.62795 -0.07761,0.22578 -0.225777,0.35278 -0.148167,0.127 -0.338667,0.1905 -0.1905,0.0635 -0.402167,0.0776 -0.211667,0.0212 -0.409223,0.0282 -0.289278,0.007 -0.479778,0.0212 -0.1905,0.0212 -0.310444,0.0423 -0.119945,0.0282 -0.190501,0.0635 -0.0635,0.0353 -0.09878,0.0847 h -0.04939 v -0.52917 q 0.127,-0.0776 0.352778,-0.11288 0.225778,-0.0282 0.472722,-0.0494 0.246945,-0.0141 0.479778,-0.0282 0.232834,-0.007 0.381,-0.0353 0.204612,-0.0423 0.324556,-0.14111 0.127,-0.0917 0.1905,-0.22578 0.0635,-0.13406 0.08467,-0.30339 0.02117,-0.16228 0.02117,-0.33867 z"
           style="fill:#000000;stroke:none"
           id="path2061" />
        <path
           d="m -54.842944,135.02738 h 5.080003 v 0.47978 h -5.080003 z"
           style="fill:#000000;stroke:none"
           id="path2063" />
        <path
           d="m -54.842944,136.79832 h 5.080003 v 1.85562 q 0,0.49389 -0.112889,0.81139 -0.112889,0.32455 -0.310445,0.508 -0.197555,0.1905 -0.458611,0.26105 -0.254,0.0776 -0.536223,0.0776 -0.423333,0 -0.6985,-0.17639 -0.275167,-0.16933 -0.437445,-0.4445 -0.155222,-0.27516 -0.218722,-0.62794 -0.0635,-0.34572 -0.0635,-0.6985 v -1.08656 h -2.243668 z m 2.65289,1.58045 q 0,0.33867 0.04233,0.60678 0.04233,0.26811 0.155222,0.45155 0.119944,0.1905 0.3175,0.28928 0.204611,0.10583 0.529167,0.10583 0.479778,0 0.726723,-0.3175 0.246944,-0.31044 0.246944,-0.99483 v -1.24178 h -2.01789 z"
           style="fill:#000000;stroke:none"
           id="path2065" />
        <path
           d="m -54.842944,141.12337 h 5.080003 v 0.47978 h -2.180168 v 3.00567 h 2.180168 v 0.47977 h -5.080003 v -0.47977 h 2.490612 v -3.00567 h -2.490612 z"
           style="fill:#000000;stroke:none"
           id="path2067" />
        <path
           d="m -54.842944,146.22453 h 5.080003 v 3.37961 h -0.409223 v -2.89983 h -1.834445 v 2.61761 h -0.409223 v -2.61761 h -2.01789 v 2.97039 h -0.409222 z"
           style="fill:#000000;stroke:none"
           id="path2069" />
        <path
           d="m -52.126554,152.50396 q 0,0.26811 0.05644,0.49389 0.05644,0.23284 0.176389,0.40217 0.127,0.16933 0.3175,0.26811 0.1905,0.0988 0.458611,0.0988 0.282223,0 0.465667,-0.10584 0.183445,-0.0988 0.289278,-0.27516 0.105834,-0.16934 0.148167,-0.39511 0.04233,-0.21873 0.04233,-0.45862 v -1.524 h -1.95439 z m -0.409222,-1.49578 h -2.307168 v -0.47977 h 5.080003 v 1.98966 q 0,0.83962 -0.3175,1.28412 -0.310445,0.4445 -1.016001,0.4445 -0.479778,0 -0.762,-0.19756 -0.282223,-0.1905 -0.479779,-0.62794 -0.07761,0.22577 -0.225777,0.35277 -0.148167,0.127 -0.338667,0.1905 -0.1905,0.0635 -0.402167,0.0776 -0.211667,0.0212 -0.409223,0.0282 -0.289278,0.007 -0.479778,0.0212 -0.1905,0.0212 -0.310444,0.0423 -0.119945,0.0282 -0.190501,0.0635 -0.0635,0.0353 -0.09878,0.0847 h -0.04939 v -0.52916 q 0.127,-0.0776 0.352778,-0.11289 0.225778,-0.0282 0.472722,-0.0494 0.246945,-0.0141 0.479778,-0.0282 0.232834,-0.007 0.381,-0.0353 0.204612,-0.0423 0.324556,-0.14111 0.127,-0.0917 0.1905,-0.22578 0.0635,-0.13406 0.08467,-0.30339 0.02117,-0.16228 0.02117,-0.33867 z"
           style="fill:#000000;stroke:none"
           id="path2071" />
        <path
           d="m -54.842944,154.77585 5.080003,1.99672 v 0.54328 l -5.080003,1.94734 v -0.49389 l 1.594556,-0.58562 v -2.31422 l -1.594556,-0.59972 z m 2.003779,1.25589 v 1.98967 l 2.667001,-0.99484 z"
           style="fill:#000000;stroke:none"
           id="path2073" />
        <path
           d="m -54.842944,159.94757 h 5.080003 v 0.47978 h -4.670781 v 2.72345 h -0.409222 z"
           style="fill:#000000;stroke:none"
           id="path2075" />
      </g>
      <g
         aria-label="MOBILE APPLICATION"
         transform="rotate(-90)"
         id="text1704-7-8"
         style="font-weight:300;font-size:4.23333px;font-family:Helvetica;-inkscape-font-specification:'Helvetica Light';writing-mode:tb-rl;direction:rtl;fill:none;stroke:#040404;stroke-width:0.132292">
        <path
           d="m -69.088672,45.189712 v -0.593245 h 3.04684 v 0.926041 l -2.395717,0.553971 2.395717,0.549837 v 0.915705 h -3.04684 v -0.593245 h 2.060854 q 0.08888,0 0.248047,0.0021 0.16123,0.0021 0.248047,0.0021 l -2.556948,-0.576709 v -0.61805 l 2.556948,-0.572574 q -0.08682,0 -0.248047,0.0021 -0.159163,0.0021 -0.248047,0.0021 z"
           style="font-weight:bold;-inkscape-font-specification:'Helvetica Bold';fill:#000000;stroke:none"
           id="path2078" />
        <path
           d="m -69.173421,49.480919 q 0,-0.653189 0.355533,-0.998387 0.436149,-0.463021 1.25677,-0.463021 0.837158,0 1.25677,0.463021 0.355533,0.345198 0.355533,0.998387 0,0.65319 -0.355533,0.998388 -0.419612,0.460954 -1.25677,0.460954 -0.820621,0 -1.25677,-0.460954 -0.355533,-0.345198 -0.355533,-0.998388 z m 0.818554,0.601514 q 0.279052,0.221175 0.793749,0.221175 0.51263,0 0.791682,-0.223242 0.28112,-0.221175 0.28112,-0.599447 0,-0.378271 -0.279053,-0.60358 -0.279052,-0.225309 -0.793749,-0.225309 -0.514697,0 -0.793749,0.225309 -0.279053,0.225309 -0.279053,0.60358 0,0.378272 0.279053,0.601514 z"
           style="font-weight:bold;-inkscape-font-specification:'Helvetica Bold';fill:#000000;stroke:none"
           id="path2080" />
        <path
           d="m -69.088672,52.817147 v -1.380793 h 3.04684 v 1.480012 q -0.0083,0.560172 -0.324528,0.793749 -0.194303,0.14056 -0.465087,0.14056 -0.279053,0 -0.448551,-0.14056 -0.09508,-0.07855 -0.173633,-0.23151 -0.08475,0.233577 -0.268717,0.351399 -0.183968,0.11989 -0.446484,0.11989 -0.270784,0 -0.485758,-0.136426 -0.142627,-0.08682 -0.239779,-0.217041 -0.111621,-0.146761 -0.152962,-0.347265 -0.04134,-0.198438 -0.04134,-0.432015 z m 1.341519,-0.01447 v -0.75861 h -0.812353 v 0.748274 q 0,0.200505 0.05374,0.312126 0.09922,0.202571 0.380338,0.202571 0.237711,0 0.326595,-0.19637 0.04961,-0.109554 0.05168,-0.307991 z m 0.580843,0.316259 q 0.07441,0.124024 0.26665,0.124024 0.212907,0 0.281119,-0.165365 0.04754,-0.142627 0.04754,-0.363802 v -0.669726 h -0.671793 v 0.748274 q 0,0.200505 0.07648,0.326595 z"
           style="font-weight:bold;-inkscape-font-specification:'Helvetica Bold';fill:#000000;stroke:none"
           id="path2082" />
        <path
           d="m -66.041832,54.433585 v 0.632519 h -3.04684 v -0.632519 z"
           style="font-weight:bold;-inkscape-font-specification:'Helvetica Bold';fill:#000000;stroke:none"
           id="path2084" />
        <path
           d="m -66.041832,55.659348 v 0.636653 h -2.49907 v 1.508951 h -0.54777 v -2.145604 z"
           style="font-weight:bold;-inkscape-font-specification:'Helvetica Bold';fill:#000000;stroke:none"
           id="path2086" />
        <path
           d="m -67.757488,60.366034 v -1.480012 h -0.783414 v 1.686718 h -0.54777 v -2.308901 h 3.04684 v 2.234487 h -0.539502 v -1.612304 h -0.646988 v 1.480012 z"
           style="font-weight:bold;-inkscape-font-specification:'Helvetica Bold';fill:#000000;stroke:none"
           id="path2088" />
        <path
           d="m -68.462354,63.873828 v -1.122411 l -0.626318,-0.21084 v -0.665592 l 3.04684,1.087271 v 0.719336 l -3.04684,1.079003 v -0.690397 z m 0.525032,-0.177767 1.198892,-0.380338 -1.198892,-0.392741 z"
           style="font-weight:bold;-inkscape-font-specification:'Helvetica Bold';fill:#000000;stroke:none"
           id="path2090" />
        <path
           d="m -67.993132,66.44111 v -0.646988 h -1.09554 v -0.632519 h 3.04684 v 1.327049 q 0,0.458887 -0.235644,0.731738 -0.235645,0.272851 -0.729671,0.272851 -0.539501,0 -0.762743,-0.272851 -0.223242,-0.272851 -0.223242,-0.77928 z m 0.634586,0.297656 q 0.109554,0.124024 0.347265,0.124024 0.237711,0 0.338997,-0.126091 0.101286,-0.124023 0.101286,-0.349332 V 65.794122 H -67.4681 v 0.593245 q 0,0.225309 0.109554,0.351399 z"
           style="font-weight:bold;-inkscape-font-specification:'Helvetica Bold';fill:#000000;stroke:none"
           id="path2092" />
        <path
           d="m -67.993132,69.264709 v -0.646988 h -1.09554 v -0.632519 h 3.04684 v 1.327049 q 0,0.458887 -0.235644,0.731738 -0.235645,0.272851 -0.729671,0.272851 -0.539501,0 -0.762743,-0.272851 -0.223242,-0.272851 -0.223242,-0.77928 z m 0.634586,0.297656 q 0.109554,0.124023 0.347265,0.124023 0.237711,0 0.338997,-0.12609 0.101286,-0.124023 0.101286,-0.349332 V 68.617721 H -67.4681 v 0.593245 q 0,0.225309 0.109554,0.351399 z"
           style="font-weight:bold;-inkscape-font-specification:'Helvetica Bold';fill:#000000;stroke:none"
           id="path2094" />
        <path
           d="m -66.041832,70.794329 v 0.636653 h -2.49907 v 1.508951 h -0.54777 v -2.145604 z"
           style="font-weight:bold;-inkscape-font-specification:'Helvetica Bold';fill:#000000;stroke:none"
           id="path2096" />
        <path
           d="m -66.041832,73.330606 v 0.632519 h -3.04684 v -0.632519 z"
           style="font-weight:bold;-inkscape-font-specification:'Helvetica Bold';fill:#000000;stroke:none"
           id="path2098" />
        <path
           d="m -68.861296,76.706108 q -0.312125,-0.341064 -0.312125,-0.872297 0,-0.657324 0.421679,-1.033528 0.423747,-0.376204 1.161685,-0.376204 0.797884,0 1.229898,0.42788 0.376205,0.37207 0.376205,0.946712 0,0.768944 -0.504362,1.124478 -0.283187,0.19637 -0.56844,0.21084 v -0.636654 q 0.219108,-0.06201 0.330729,-0.159163 0.198437,-0.173632 0.198437,-0.514697 0,-0.347265 -0.28112,-0.547769 -0.279052,-0.200505 -0.791682,-0.200505 -0.51263,0 -0.768945,0.21084 -0.254247,0.212907 -0.254247,0.539501 0,0.334863 0.219107,0.510563 0.117823,0.09715 0.353467,0.16123 v 0.630452 q -0.49816,-0.08268 -0.810286,-0.421679 z"
           style="font-weight:bold;-inkscape-font-specification:'Helvetica Bold';fill:#000000;stroke:none"
           id="path2100" />
        <path
           d="m -68.462354,79.397416 v -1.122411 l -0.626318,-0.21084 v -0.665592 l 3.04684,1.087271 v 0.719336 l -3.04684,1.079003 v -0.690397 z m 0.525032,-0.177767 1.198892,-0.380338 -1.198892,-0.392741 z"
           style="font-weight:bold;-inkscape-font-specification:'Helvetica Bold';fill:#000000;stroke:none"
           id="path2102" />
        <path
           d="m -66.041832,82.572412 h -0.539502 V 81.66084 h -2.507338 v -0.640787 h 2.507338 v -0.915705 h 0.539502 z"
           style="font-weight:bold;-inkscape-font-specification:'Helvetica Bold';fill:#000000;stroke:none"
           id="path2104" />
        <path
           d="m -66.041832,82.894874 v 0.632519 h -3.04684 v -0.632519 z"
           style="font-weight:bold;-inkscape-font-specification:'Helvetica Bold';fill:#000000;stroke:none"
           id="path2106" />
        <path
           d="m -69.173421,85.468359 q 0,-0.65319 0.355533,-0.998388 0.436149,-0.463021 1.25677,-0.463021 0.837158,0 1.25677,0.463021 0.355533,0.345198 0.355533,0.998388 0,0.653189 -0.355533,0.998387 -0.419612,0.460954 -1.25677,0.460954 -0.820621,0 -1.25677,-0.460954 -0.355533,-0.345198 -0.355533,-0.998387 z m 0.818554,0.601513 q 0.279052,0.221175 0.793749,0.221175 0.51263,0 0.791682,-0.223242 0.28112,-0.221175 0.28112,-0.599446 0,-0.378272 -0.279053,-0.603581 -0.279052,-0.225309 -0.793749,-0.225309 -0.514697,0 -0.793749,0.225309 -0.279053,0.225309 -0.279053,0.603581 0,0.378271 0.279053,0.601513 z"
           style="font-weight:bold;-inkscape-font-specification:'Helvetica Bold';fill:#000000;stroke:none"
           id="path2108" />
        <path
           d="m -69.088672,89.877385 v -0.636653 l 2.164207,-1.244368 h -2.164207 v -0.593245 h 3.04684 v 0.667659 l -2.127,1.213362 h 2.127 v 0.593245 z"
           style="font-weight:bold;-inkscape-font-specification:'Helvetica Bold';fill:#000000;stroke:none"
           id="path2110" />
      </g>
    </g>
  </g>
</svg>
